<svg width="76" height="50" viewBox="0 0 76 50" fill="none" xmlns="http://www.w3.org/2000/svg">
<path d="M50.2896 16.4448V0.00666128C61.3964 -0.260664 71.8501 7.54805 74.64 18.0253C78.8224 33.7084 67.125 48.4394 50.7506 49.0351C42.1024 43.8902 33.8768 37.9622 25.3342 32.6016V49.0397C5.88179 48.8193 -6.52629 28.5307 3.6297 11.8253C8.00422 4.63092 16.5228 -0.199695 25.1758 0.020731L50.2896 16.4448ZM19.8217 42.8022V5.95817C0.983862 11.4313 0.825399 37.5307 19.8217 42.8022ZM55.8022 42.8022C69.4203 39.0596 74.544 22.7715 65.3676 12.0644C63.0867 9.40057 59.3316 6.80704 55.8022 6.24425V42.8022ZM50.2896 22.6777L25.3342 6.52565V25.9372L50.2896 42.5161V22.6777Z" fill="white"/>
</svg>
