<svg width="413" height="148" viewBox="0 0 413 148" fill="none" xmlns="http://www.w3.org/2000/svg">
<mask id="path-1-outside-1_160_944" maskUnits="userSpaceOnUse" x="-0.404297" y="-0.199982" width="413" height="148" fill="black">
<rect fill="white" x="-0.404297" y="-0.199982" width="413" height="148"/>
<path d="M0.99961 117V91.2L63.7996 3.80001H104.8L43.7996 91.2L24.9996 85.6H134.4V117H0.99961ZM74.9996 143.8V117L76.1996 85.6V61.8H113.6V143.8H74.9996ZM204.239 146.6C192.239 146.6 181.572 143.733 172.239 138C163.039 132.267 155.772 124 150.439 113.2C145.105 102.4 142.439 89.2667 142.439 73.8C142.439 58.3333 145.105 45.2 150.439 34.4C155.772 23.6 163.039 15.3333 172.239 9.60002C181.572 3.86668 192.239 1.00001 204.239 1.00001C216.105 1.00001 226.639 3.86668 235.839 9.60002C245.172 15.3333 252.505 23.6 257.839 34.4C263.172 45.2 265.839 58.3333 265.839 73.8C265.839 89.2667 263.172 102.4 257.839 113.2C252.505 124 245.172 132.267 235.839 138C226.639 143.733 216.105 146.6 204.239 146.6ZM204.239 114.2C208.505 114.2 212.239 112.867 215.439 110.2C218.772 107.533 221.372 103.267 223.239 97.4C225.105 91.4 226.039 83.5333 226.039 73.8C226.039 63.9333 225.105 56.0667 223.239 50.2C221.372 44.3333 218.772 40.0667 215.439 37.4C212.239 34.7333 208.505 33.4 204.239 33.4C199.972 33.4 196.172 34.7333 192.839 37.4C189.639 40.0667 187.039 44.3333 185.039 50.2C183.172 56.0667 182.239 63.9333 182.239 73.8C182.239 83.5333 183.172 91.4 185.039 97.4C187.039 103.267 189.639 107.533 192.839 110.2C196.172 112.867 199.972 114.2 204.239 114.2ZM277.953 117V91.2L340.753 3.80001H381.753L320.753 91.2L301.953 85.6H411.353V117H277.953ZM351.953 143.8V117L353.153 85.6V61.8H390.553V143.8H351.953Z"/>
</mask>
<path d="M0.999609 117H-0.00039053V118H0.999609V117ZM0.999609 91.2L0.187511 90.6165L-0.00039053 90.878V91.2H0.999609ZM63.7996 3.80001V2.80001H63.2868L62.9875 3.21649L63.7996 3.80001ZM104.8 3.80001L105.62 4.37234L106.717 2.80001H104.8V3.80001ZM43.7996 91.2L43.5141 92.1584L44.2063 92.3646L44.6196 91.7723L43.7996 91.2ZM24.9996 85.6V84.6L24.7141 86.5584L24.9996 85.6ZM134.4 85.6H135.4V84.6H134.4V85.6ZM134.4 117V118H135.4V117H134.4ZM74.9996 143.8H73.9996V144.8H74.9996V143.8ZM74.9996 117L74.0003 116.962L73.9996 116.981V117H74.9996ZM76.1996 85.6L77.1989 85.6382L77.1996 85.6191V85.6H76.1996ZM76.1996 61.8V60.8H75.1996V61.8H76.1996ZM113.6 61.8H114.6V60.8H113.6V61.8ZM113.6 143.8V144.8H114.6V143.8H113.6ZM0.999609 117H1.99961V91.2H0.999609H-0.00039053V117H0.999609ZM0.999609 91.2L1.81171 91.7835L64.6117 4.38353L63.7996 3.80001L62.9875 3.21649L0.187511 90.6165L0.999609 91.2ZM63.7996 3.80001V4.80001H104.8V3.80001V2.80001H63.7996V3.80001ZM104.8 3.80001L103.98 3.22768L42.9796 90.6277L43.7996 91.2L44.6196 91.7723L105.62 4.37234L104.8 3.80001ZM43.7996 91.2L44.0851 90.2416L25.2851 84.6416L24.9996 85.6L24.7141 86.5584L43.5141 92.1584L43.7996 91.2ZM24.9996 85.6V86.6H134.4V85.6V84.6H24.9996V85.6ZM134.4 85.6H133.4V117H134.4H135.4V85.6H134.4ZM134.4 117V116H0.999609V117V118H134.4V117ZM74.9996 143.8H75.9996V117H74.9996H73.9996V143.8H74.9996ZM74.9996 117L75.9989 117.038L77.1989 85.6382L76.1996 85.6L75.2003 85.5618L74.0003 116.962L74.9996 117ZM76.1996 85.6H77.1996V61.8H76.1996H75.1996V85.6H76.1996ZM76.1996 61.8V62.8H113.6V61.8V60.8H76.1996V61.8ZM113.6 61.8H112.6V143.8H113.6H114.6V61.8H113.6ZM113.6 143.8V142.8H74.9996V143.8V144.8H113.6V143.8ZM172.239 138L171.71 138.849L171.715 138.852L172.239 138ZM150.439 113.2L149.542 113.643L150.439 113.2ZM150.439 34.4L149.542 33.9572L150.439 34.4ZM172.239 9.60002L171.715 8.74792L171.71 8.75133L172.239 9.60002ZM235.839 9.60002L235.31 10.4487L235.315 10.4521L235.839 9.60002ZM257.839 34.4L256.942 34.8428L257.839 34.4ZM257.839 113.2L256.942 112.757L257.839 113.2ZM235.839 138L235.315 137.148L235.31 137.151L235.839 138ZM215.439 110.2L214.814 109.419L214.806 109.425L214.798 109.432L215.439 110.2ZM223.239 97.4L224.192 97.7032L224.194 97.6971L223.239 97.4ZM215.439 37.4L214.798 38.1682L214.806 38.1746L214.814 38.1809L215.439 37.4ZM192.839 37.4L192.214 36.6191L192.206 36.6254L192.198 36.6318L192.839 37.4ZM185.039 50.2L184.092 49.8773L184.089 49.887L184.086 49.8968L185.039 50.2ZM185.039 97.4L184.084 97.6971L184.088 97.7099L184.092 97.7227L185.039 97.4ZM192.839 110.2L192.198 110.968L192.206 110.975L192.214 110.981L192.839 110.2ZM204.239 146.6V145.6C192.405 145.6 181.923 142.775 172.762 137.148L172.239 138L171.715 138.852C181.221 144.691 192.072 147.6 204.239 147.6V146.6ZM172.239 138L172.768 137.151C163.743 131.527 156.596 123.409 151.335 112.757L150.439 113.2L149.542 113.643C154.948 124.591 162.335 133.006 171.71 138.849L172.239 138ZM150.439 113.2L151.335 112.757C146.086 102.128 143.439 89.1553 143.439 73.8H142.439H141.439C141.439 89.378 144.124 102.672 149.542 113.643L150.439 113.2ZM142.439 73.8H143.439C143.439 58.4447 146.086 45.4717 151.335 34.8428L150.439 34.4L149.542 33.9572C144.124 44.9283 141.439 58.222 141.439 73.8H142.439ZM150.439 34.4L151.335 34.8428C156.596 24.1906 163.743 16.0729 172.768 10.4487L172.239 9.60002L171.71 8.75133C162.335 14.5938 154.948 23.0095 149.542 33.9572L150.439 34.4ZM172.239 9.60002L172.762 10.4521C181.923 4.82461 192.405 2.00001 204.239 2.00001V1.00001V9.05991e-06C192.072 9.05991e-06 181.221 2.90875 171.715 8.74794L172.239 9.60002ZM204.239 1.00001V2.00001C215.937 2.00001 226.283 4.82353 235.31 10.4487L235.839 9.60002L236.368 8.75133C226.994 2.90983 216.274 9.05991e-06 204.239 9.05991e-06V1.00001ZM235.839 9.60002L235.315 10.4521C244.472 16.0772 251.684 24.1942 256.942 34.8428L257.839 34.4L258.735 33.9572C253.327 23.0058 245.872 14.5895 236.362 8.74794L235.839 9.60002ZM257.839 34.4L256.942 34.8428C262.191 45.4717 264.839 58.4447 264.839 73.8H265.839H266.839C266.839 58.222 264.153 44.9283 258.735 33.9572L257.839 34.4ZM265.839 73.8H264.839C264.839 89.1553 262.191 102.128 256.942 112.757L257.839 113.2L258.735 113.643C264.153 102.672 266.839 89.378 266.839 73.8H265.839ZM257.839 113.2L256.942 112.757C251.684 123.406 244.472 131.523 235.315 137.148L235.839 138L236.362 138.852C245.872 133.01 253.327 124.594 258.735 113.643L257.839 113.2ZM235.839 138L235.31 137.151C226.283 142.777 215.937 145.6 204.239 145.6V146.6V147.6C216.274 147.6 226.994 144.69 236.368 138.849L235.839 138ZM204.239 114.2V115.2C208.733 115.2 212.694 113.789 216.079 110.968L215.439 110.2L214.798 109.432C211.783 111.945 208.278 113.2 204.239 113.2V114.2ZM215.439 110.2L216.063 110.981C219.605 108.148 222.29 103.679 224.192 97.7032L223.239 97.4L222.286 97.0968C220.454 102.855 217.939 106.919 214.814 109.419L215.439 110.2ZM223.239 97.4L224.194 97.6971C226.102 91.5633 227.039 83.5852 227.039 73.8H226.039H225.039C225.039 83.4815 224.109 91.2367 222.284 97.103L223.239 97.4ZM226.039 73.8H227.039C227.039 63.8845 226.102 55.9024 224.192 49.8968L223.239 50.2L222.286 50.5032C224.108 56.231 225.039 63.9821 225.039 73.8H226.039ZM223.239 50.2L224.192 49.8968C222.29 43.9213 219.605 39.4525 216.063 36.6191L215.439 37.4L214.814 38.1809C217.939 40.6809 220.454 44.7454 222.286 50.5032L223.239 50.2ZM215.439 37.4L216.079 36.6318C212.694 33.8114 208.733 32.4 204.239 32.4V33.4V34.4C208.278 34.4 211.783 35.6552 214.798 38.1682L215.439 37.4ZM204.239 33.4V32.4C199.745 32.4 195.725 33.8107 192.214 36.6191L192.839 37.4L193.463 38.1809C196.619 35.656 200.199 34.4 204.239 34.4V33.4ZM192.839 37.4L192.198 36.6318C188.805 39.46 186.124 43.916 184.092 49.8773L185.039 50.2L185.985 50.5227C187.953 44.7507 190.473 40.6734 193.479 38.1682L192.839 37.4ZM185.039 50.2L184.086 49.8968C182.175 55.9024 181.239 63.8845 181.239 73.8H182.239H183.239C183.239 63.9821 184.169 56.231 185.992 50.5032L185.039 50.2ZM182.239 73.8H181.239C181.239 83.5852 182.176 91.5633 184.084 97.6971L185.039 97.4L185.994 97.103C184.168 91.2367 183.239 83.4815 183.239 73.8H182.239ZM185.039 97.4L184.092 97.7227C186.124 103.684 188.805 108.14 192.198 110.968L192.839 110.2L193.479 109.432C190.473 106.927 187.953 102.849 185.985 97.0773L185.039 97.4ZM192.839 110.2L192.214 110.981C195.725 113.789 199.745 115.2 204.239 115.2V114.2V113.2C200.199 113.2 196.619 111.944 193.463 109.419L192.839 110.2ZM277.953 117H276.953V118H277.953V117ZM277.953 91.2L277.141 90.6165L276.953 90.878V91.2H277.953ZM340.753 3.80001V2.80001H340.24L339.941 3.21649L340.753 3.80001ZM381.753 3.80001L382.573 4.37234L383.67 2.80001H381.753V3.80001ZM320.753 91.2L320.467 92.1584L321.159 92.3646L321.573 91.7723L320.753 91.2ZM301.953 85.6V84.6L301.667 86.5584L301.953 85.6ZM411.353 85.6H412.353V84.6H411.353V85.6ZM411.353 117V118H412.353V117H411.353ZM351.953 143.8H350.953V144.8H351.953V143.8ZM351.953 117L350.953 116.962L350.953 116.981V117H351.953ZM353.153 85.6L354.152 85.6382L354.153 85.6191V85.6H353.153ZM353.153 61.8V60.8H352.153V61.8H353.153ZM390.553 61.8H391.553V60.8H390.553V61.8ZM390.553 143.8V144.8H391.553V143.8H390.553ZM277.953 117H278.953V91.2H277.953H276.953V117H277.953ZM277.953 91.2L278.765 91.7835L341.565 4.38353L340.753 3.80001L339.941 3.21649L277.141 90.6165L277.953 91.2ZM340.753 3.80001V4.80001H381.753V3.80001V2.80001H340.753V3.80001ZM381.753 3.80001L380.933 3.22768L319.933 90.6277L320.753 91.2L321.573 91.7723L382.573 4.37234L381.753 3.80001ZM320.753 91.2L321.038 90.2416L302.238 84.6416L301.953 85.6L301.667 86.5584L320.467 92.1584L320.753 91.2ZM301.953 85.6V86.6H411.353V85.6V84.6H301.953V85.6ZM411.353 85.6H410.353V117H411.353H412.353V85.6H411.353ZM411.353 117V116H277.953V117V118H411.353V117ZM351.953 143.8H352.953V117H351.953H350.953V143.8H351.953ZM351.953 117L352.952 117.038L354.152 85.6382L353.153 85.6L352.153 85.5618L350.953 116.962L351.953 117ZM353.153 85.6H354.153V61.8H353.153H352.153V85.6H353.153ZM353.153 61.8V62.8H390.553V61.8V60.8H353.153V61.8ZM390.553 61.8H389.553V143.8H390.553H391.553V61.8H390.553ZM390.553 143.8V142.8H351.953V143.8V144.8H390.553V143.8Z" fill="white" mask="url(#path-1-outside-1_160_944)"/>
</svg>
