<svg width="18" height="14" viewBox="0 0 18 14" fill="none" xmlns="http://www.w3.org/2000/svg">
  <path d="M1.2595 12.3918H16.7403C16.9229 12.3918 17.0711 12.2436 17.0711 12.061V1.93894C17.0711 1.75635 16.9229 1.60815 16.7403 1.60815H1.2595C1.0769 1.60815 0.928711 1.75635 0.928711 1.93894V12.061C0.928711 12.2436 1.0769 12.3918 1.2595 12.3918ZM1.59028 11.7302V2.57008L8.81202 7.57025C8.86759 7.60862 8.93375 7.62847 8.9999 7.62847C9.06606 7.62847 9.13222 7.60862 9.18779 7.57025L16.4095 2.57008V11.7302H1.59028ZM2.31801 2.26973H15.6818L8.9999 6.89545L2.31801 2.26973Z" fill="#0077C8" />
</svg>