<svg width="18" height="14" viewBox="0 0 18 14" fill="none" xmlns="http://www.w3.org/2000/svg">
  <path d="M3.00049 0.689514C3.63284 0.136424 4.50977 -0.0650301 5.32959 0.169006C5.51413 0.220713 5.68995 0.293194 5.854 0.384827C5.92546 0.424231 5.97331 0.494208 5.98584 0.57428L6.53955 4.05768L6.5415 4.11823C6.53727 4.17848 6.51297 4.23577 6.47119 4.28033C6.25862 4.5062 6.01014 4.68984 5.73389 4.82428C5.28002 5.04485 5.05261 5.5308 5.16846 6.00983L5.19678 6.10553L5.34521 6.50983C5.71901 7.44099 6.27285 8.27826 6.99658 9.00201C7.82357 9.82756 8.79736 10.4327 9.89307 10.8038C10.4019 10.9766 10.9406 10.7515 11.1743 10.2676C11.3087 9.99003 11.492 9.74191 11.7192 9.52936L11.7202 9.52838C11.7805 9.47353 11.8626 9.44852 11.9429 9.461L15.4243 10.0128L15.4819 10.0284C15.5371 10.0504 15.5832 10.0912 15.6128 10.1446C15.7059 10.3102 15.7808 10.4876 15.8325 10.671C16.0792 11.5439 15.8351 12.4834 15.1938 13.1231C14.8836 13.4347 14.4953 13.6593 14.0728 13.7715H14.0718C14.0682 13.7724 14.0641 13.7738 14.061 13.7745L14.0493 13.7774C13.8777 13.8065 13.7015 13.8308 13.5259 13.8526C13.1114 13.9021 12.6979 13.9268 12.2876 13.9268C9.58746 13.9267 7.00898 12.8689 5.06982 10.9297C2.83696 8.6967 1.77227 5.61382 2.146 2.47467C2.16638 2.29853 2.19213 2.12222 2.22119 1.95221L2.22412 1.94049C2.2248 1.93745 2.22615 1.93335 2.22705 1.92975V1.92877C2.3393 1.50346 2.56351 1.11494 2.87646 0.804749L3.00049 0.689514ZM5.18311 0.677795C4.5383 0.495148 3.84636 0.652899 3.34717 1.0899L3.25049 1.18073C3.00624 1.42357 2.82963 1.72568 2.74072 2.05573C2.71502 2.21443 2.69134 2.3757 2.67139 2.53815C2.31704 5.51549 3.32652 8.43937 5.44385 10.5567C7.56248 12.6738 10.4858 13.6838 13.4614 13.3282L13.9448 13.2569C14.2746 13.1679 14.5771 12.9928 14.8198 12.7501C15.3251 12.2447 15.5165 11.5035 15.3218 10.8174V10.8165C15.293 10.7133 15.2535 10.613 15.2075 10.5167L11.9917 10.0069C11.8531 10.1533 11.7394 10.3191 11.6528 10.4991C11.306 11.2137 10.4761 11.5608 9.72412 11.3067C8.55139 10.9104 7.50669 10.2606 6.62256 9.37799C5.73697 8.49385 5.08868 7.44911 4.69385 6.27643C4.43815 5.5243 4.78443 4.69558 5.50049 4.34869H5.50146C5.68261 4.26212 5.84627 4.14758 5.99268 4.00885L5.48291 0.791077C5.43885 0.770113 5.39395 0.751022 5.34814 0.733459L5.18311 0.677795Z" fill="#0077C8" stroke="#0077C8" stroke-width="0.1" />
</svg>