<svg width="18" height="14" viewBox="0 0 18 14" fill="none" xmlns="http://www.w3.org/2000/svg">
  <path d="M1.25962 12.392H16.7404C16.923 12.392 17.0712 12.2438 17.0712 12.0613V1.93919C17.0712 1.75659 16.923 1.6084 16.7404 1.6084H1.25962C1.07703 1.6084 0.928833 1.75659 0.928833 1.93919V12.0613C0.928833 12.2438 1.07703 12.392 1.25962 12.392ZM1.59041 11.7305V2.57033L8.81214 7.5705C8.86771 7.60887 8.93387 7.62872 9.00003 7.62872C9.06618 7.62872 9.13234 7.60887 9.18791 7.5705L16.4096 2.57033V11.7305H1.59041ZM2.31814 2.26997H15.6819L9.00003 6.89569L2.31814 2.26997Z" fill="white" />
</svg>