<svg width="18" height="15" viewBox="0 0 18 15" fill="none" xmlns="http://www.w3.org/2000/svg">
  <path d="M8.99996 14.0484C9.05178 14.0484 9.10475 14.0346 9.15081 14.0058C9.41105 13.8469 15.506 10.0607 15.506 6.50601C15.506 2.91907 12.5869 0 8.99996 0C5.41302 0 2.49396 2.91907 2.49396 6.50601C2.49396 10.0607 8.58888 13.8469 8.84912 14.0058C8.89518 14.0346 8.94815 14.0484 8.99996 14.0484ZM3.06971 6.50601C3.06971 3.23573 5.72969 0.575753 8.99996 0.575753C12.2702 0.575753 14.9302 3.23573 14.9302 6.50601C14.9302 9.45041 9.93844 12.814 8.99996 13.4196C8.06149 12.8128 3.06971 9.45041 3.06971 6.50601Z" fill="white" />
  <path d="M11.8786 6.50621C11.8786 4.91943 10.5866 3.62744 8.9998 3.62744C7.41302 3.62744 6.12103 4.91943 6.12103 6.50621C6.12103 8.09298 7.41302 9.38497 8.9998 9.38497C10.5866 9.38497 11.8786 8.09298 11.8786 6.50621ZM6.69679 6.50621C6.69679 5.23609 7.72969 4.20319 8.9998 4.20319C10.2699 4.20319 11.3028 5.23609 11.3028 6.50621C11.3028 7.77632 10.2699 8.80922 8.9998 8.80922C7.72969 8.80922 6.69679 7.77632 6.69679 6.50621Z" fill="white" />
</svg>