<svg width="43" height="43" viewBox="0 0 43 43" fill="none" xmlns="http://www.w3.org/2000/svg">
<g clip-path="url(#clip0_2001_344)">
<path d="M14.9575 23.0503L16.9279 28.9368C17.0685 29.3552 17.595 29.5054 17.9433 29.2243L23.8283 24.4796C23.8283 24.4796 17.5754 22.0969 17.5754 22.2279C17.5754 22.3588 14.9592 23.0503 14.9592 23.0503H14.9575Z" fill="#B5D1DB"/>
<path d="M30.4818 11.7386C26.6392 13.2222 14.2365 18.1872 9.54193 20.0669C8.9222 20.3144 8.95981 21.1832 9.59752 21.3828L14.9576 23.0501L16.9214 28.9175C16.9999 29.1538 17.1994 29.3055 17.4218 29.347C17.6016 29.3806 17.8682 24.596 17.8682 24.596C17.8682 24.596 23.5029 28.6779 26.1764 30.6055C26.8354 31.0798 27.7756 30.7237 27.931 29.9379C28.7273 25.9311 30.7173 15.9099 31.3991 12.4844C31.5022 11.9686 30.9822 11.5469 30.4818 11.7402V11.7386Z" fill="white"/>
<path d="M17.4218 29.3473C17.6016 29.3809 17.8682 24.5963 17.8682 24.5963L27.1248 16.1034C27.187 16.0459 27.1134 15.9485 27.0382 15.9917L14.9543 23.0504L16.9181 28.9177C16.9966 29.1541 17.1961 29.3058 17.4185 29.3473H17.4218Z" fill="#D6E2EA"/>
</g>
<circle cx="21.2548" cy="21.2548" r="20.7548" stroke="white"/>
<defs>
<clipPath id="clip0_2001_344">
<rect width="22.3151" height="19.1272" fill="white" transform="translate(9.09717 11.6909)"/>
</clipPath>
</defs>
</svg>
