<svg width="612" height="77" viewBox="0 0 612 77" fill="none" xmlns="http://www.w3.org/2000/svg">
<mask id="path-1-outside-1_148_3558" maskUnits="userSpaceOnUse" x="-0.5" y="-0.800049" width="612" height="78" fill="black">
<rect fill="white" x="-0.5" y="-0.800049" width="612" height="78"/>
<path d="M24.3 73.2V12.6999L28 16.3999H2V3.19995H62.7V16.3999H36.7L40.3 12.6999V73.2H24.3ZM110.395 74.4C104.862 74.4 99.7286 73.5 94.9953 71.7C90.3286 69.9 86.262 67.3666 82.7953 64.1C79.3953 60.8333 76.7286 57 74.7953 52.5999C72.9286 48.1999 71.9953 43.3999 71.9953 38.1999C71.9953 32.9999 72.9286 28.1999 74.7953 23.7999C76.7286 19.4 79.4286 15.5666 82.8953 12.2999C86.362 9.03328 90.4286 6.49995 95.0953 4.69994C99.762 2.89995 104.829 1.99995 110.295 1.99995C115.829 1.99995 120.895 2.89995 125.495 4.69994C130.162 6.49995 134.195 9.03328 137.595 12.2999C141.062 15.5666 143.762 19.4 145.695 23.7999C147.629 28.1333 148.595 32.9333 148.595 38.1999C148.595 43.3999 147.629 48.2333 145.695 52.6999C143.762 57.0999 141.062 60.9333 137.595 64.2C134.195 67.4 130.162 69.9 125.495 71.7C120.895 73.5 115.862 74.4 110.395 74.4ZM110.295 60.6C113.429 60.6 116.295 60.0666 118.895 59C121.562 57.9333 123.895 56.4 125.895 54.4C127.895 52.4 129.429 50.0333 130.495 47.3C131.629 44.5666 132.195 41.5333 132.195 38.1999C132.195 34.8666 131.629 31.8333 130.495 29.0999C129.429 26.3666 127.895 23.9999 125.895 21.9999C123.962 19.9999 121.662 18.4666 118.995 17.3999C116.329 16.3333 113.429 15.8 110.295 15.8C107.162 15.8 104.262 16.3333 101.595 17.3999C98.9953 18.4666 96.6953 19.9999 94.6953 21.9999C92.6953 23.9999 91.1286 26.3666 89.9953 29.0999C88.9286 31.8333 88.3953 34.8666 88.3953 38.1999C88.3953 41.4666 88.9286 44.4999 89.9953 47.3C91.1286 50.0333 92.662 52.4 94.5953 54.4C96.5953 56.4 98.9286 57.9333 101.595 59C104.262 60.0666 107.162 60.6 110.295 60.6ZM166.075 73.2V3.19995H196.375C202.642 3.19995 208.042 4.23328 212.575 6.29995C217.108 8.29995 220.608 11.1999 223.075 14.9999C225.542 18.7999 226.775 23.3333 226.775 28.6C226.775 33.7999 225.542 38.2999 223.075 42.0999C220.608 45.8999 217.108 48.8333 212.575 50.9C208.042 52.9 202.642 53.9 196.375 53.9H175.075L182.275 46.6V73.2H166.075ZM182.275 48.4L175.075 40.6999H195.475C200.475 40.6999 204.208 39.6333 206.675 37.4999C209.142 35.3666 210.375 32.3999 210.375 28.6C210.375 24.7333 209.142 21.7333 206.675 19.5999C204.208 17.4666 200.475 16.3999 195.475 16.3999H175.075L182.275 8.69995V48.4ZM242.462 73.2V3.19995H291.862L291.762 16.3999H254.762L258.462 12.6999L258.562 73.2H242.462ZM333.11 74.4C327.577 74.4 322.443 73.5 317.71 71.7C313.043 69.9 308.977 67.3666 305.51 64.1C302.11 60.8333 299.443 57 297.51 52.5999C295.643 48.1999 294.71 43.3999 294.71 38.1999C294.71 32.9999 295.643 28.1999 297.51 23.7999C299.443 19.4 302.143 15.5666 305.61 12.2999C309.077 9.03328 313.143 6.49995 317.81 4.69994C322.477 2.89995 327.543 1.99995 333.01 1.99995C338.543 1.99995 343.61 2.89995 348.21 4.69994C352.877 6.49995 356.91 9.03328 360.31 12.2999C363.777 15.5666 366.477 19.4 368.41 23.7999C370.343 28.1333 371.31 32.9333 371.31 38.1999C371.31 43.3999 370.343 48.2333 368.41 52.6999C366.477 57.0999 363.777 60.9333 360.31 64.2C356.91 67.4 352.877 69.9 348.21 71.7C343.61 73.5 338.577 74.4 333.11 74.4ZM333.01 60.6C336.143 60.6 339.01 60.0666 341.61 59C344.277 57.9333 346.61 56.4 348.61 54.4C350.61 52.4 352.143 50.0333 353.21 47.3C354.343 44.5666 354.91 41.5333 354.91 38.1999C354.91 34.8666 354.343 31.8333 353.21 29.0999C352.143 26.3666 350.61 23.9999 348.61 21.9999C346.677 19.9999 344.377 18.4666 341.71 17.3999C339.043 16.3333 336.143 15.8 333.01 15.8C329.877 15.8 326.977 16.3333 324.31 17.3999C321.71 18.4666 319.41 19.9999 317.41 21.9999C315.41 23.9999 313.843 26.3666 312.71 29.0999C311.643 31.8333 311.11 34.8666 311.11 38.1999C311.11 41.4666 311.643 44.4999 312.71 47.3C313.843 50.0333 315.377 52.4 317.31 54.4C319.31 56.4 321.643 57.9333 324.31 59C326.977 60.0666 329.877 60.6 333.01 60.6ZM388.79 73.2V3.19995H421.39C429.523 3.19995 435.857 4.76661 440.39 7.89995C444.923 11.0333 447.19 15.4999 447.19 21.2999C447.19 27.0333 445.057 31.4999 440.79 34.6999C436.523 37.8333 430.857 39.3999 423.79 39.3999L425.69 35.1999C433.557 35.1999 439.657 36.7666 443.99 39.9C448.323 43.0333 450.49 47.5666 450.49 53.4999C450.49 59.6333 448.157 64.4666 443.49 68C438.89 71.4666 432.157 73.2 423.29 73.2H388.79ZM404.89 61.2H422.69C426.423 61.2 429.257 60.4666 431.19 59C433.123 57.5333 434.09 55.2666 434.09 52.2C434.09 49.2666 433.123 47.1 431.19 45.7C429.257 44.2333 426.423 43.4999 422.69 43.4999H404.89V61.2ZM404.89 32.1999H419.99C423.523 32.1999 426.19 31.4999 427.99 30.0999C429.79 28.6333 430.69 26.4999 430.69 23.6999C430.69 20.8999 429.79 18.8 427.99 17.3999C426.19 15.9333 423.523 15.1999 419.99 15.1999H404.89V32.1999ZM469.002 74.3C467.802 74.3 466.535 74.2 465.202 74C463.935 73.8 462.535 73.5333 461.002 73.2L462.002 59.5C462.935 59.7666 463.902 59.9 464.902 59.9C467.635 59.9 469.768 58.8 471.302 56.6C472.835 54.3333 473.935 51.1 474.602 46.9C475.268 42.7 475.702 37.6 475.902 31.6L476.902 3.19995H530.702V73.2H514.702V12.6999L518.402 16.3999H487.502L490.802 12.4999L490.202 30.9999C490.002 37.8666 489.535 43.9666 488.802 49.3C488.068 54.6333 486.935 59.1666 485.402 62.9C483.868 66.6333 481.768 69.4666 479.102 71.4C476.435 73.3333 473.068 74.3 469.002 74.3ZM593.084 73.2V51.0999L597.084 54.6H577.884C571.818 54.6 566.584 53.6 562.184 51.6C557.784 49.6 554.418 46.7 552.084 42.9C549.751 39.1 548.584 34.5666 548.584 29.3C548.584 23.8333 549.818 19.1666 552.284 15.2999C554.818 11.3666 558.351 8.36662 562.884 6.29995C567.418 4.23328 572.751 3.19995 578.884 3.19995H609.084V73.2H593.084ZM548.784 73.2L566.184 48.0999H582.584L565.884 73.2H548.784ZM593.084 45.9V12.1999L597.084 16.3999H579.284C574.684 16.3999 571.151 17.4666 568.684 19.5999C566.284 21.7333 565.084 24.9 565.084 29.0999C565.084 33.1666 566.251 36.2999 568.584 38.5C570.918 40.7 574.351 41.8 578.884 41.8H597.084L593.084 45.9Z"/>
</mask>
<path d="M24.3 73.2H22.3V75.2H24.3V73.2ZM24.3 12.6999L25.7142 11.2857L22.3 7.87152V12.6999H24.3ZM28 16.3999V18.3999H32.8284L29.4142 14.9857L28 16.3999ZM2 16.3999H5.96046e-08V18.3999H2V16.3999ZM2 3.19995V1.19995H5.96046e-08V3.19995H2ZM62.7 3.19995H64.7V1.19995H62.7V3.19995ZM62.7 16.3999V18.3999H64.7V16.3999H62.7ZM36.7 16.3999L35.2666 15.0052L31.9636 18.3999H36.7V16.3999ZM40.3 12.6999H42.3V7.77641L38.8666 11.3052L40.3 12.6999ZM40.3 73.2V75.2H42.3V73.2H40.3ZM24.3 73.2H26.3V12.6999H24.3H22.3V73.2H24.3ZM24.3 12.6999L22.8858 14.1142L26.5858 17.8142L28 16.3999L29.4142 14.9857L25.7142 11.2857L24.3 12.6999ZM28 16.3999V14.3999H2V16.3999V18.3999H28V16.3999ZM2 16.3999H4V3.19995H2H5.96046e-08V16.3999H2ZM2 3.19995V5.19995H62.7V3.19995V1.19995H2V3.19995ZM62.7 3.19995H60.7V16.3999H62.7H64.7V3.19995H62.7ZM62.7 16.3999V14.3999H36.7V16.3999V18.3999H62.7V16.3999ZM36.7 16.3999L38.1335 17.7947L41.7335 14.0947L40.3 12.6999L38.8666 11.3052L35.2666 15.0052L36.7 16.3999ZM40.3 12.6999H38.3V73.2H40.3H42.3V12.6999H40.3ZM40.3 73.2V71.2H24.3V73.2V75.2H40.3V73.2ZM94.9953 71.7L94.2756 73.566L94.2844 73.5693L94.9953 71.7ZM82.7953 64.0999L81.4097 65.5422L81.4167 65.5489L81.4237 65.5555L82.7953 64.0999ZM74.7953 52.5999L72.9541 53.3811L72.9591 53.3928L72.9643 53.4045L74.7953 52.5999ZM74.7953 23.7999L72.9643 22.9954L72.9591 23.0071L72.9541 23.0189L74.7953 23.7999ZM82.8953 12.2999L81.5237 10.8444L82.8953 12.2999ZM95.0953 4.69994L94.3756 2.83394V2.83394L95.0953 4.69994ZM125.495 4.69994L124.767 6.56245L124.776 6.56595L125.495 4.69994ZM137.595 12.2999L136.21 13.7422L136.217 13.7489L136.224 13.7555L137.595 12.2999ZM145.695 23.7999L143.864 24.6045L143.869 24.6148L145.695 23.7999ZM145.695 52.7L147.526 53.5045L147.531 53.4944L145.695 52.7ZM137.595 64.2L138.966 65.6563L138.967 65.6555L137.595 64.2ZM125.495 71.7L124.776 69.8339L124.767 69.8375L125.495 71.7ZM118.895 59L118.153 57.143L118.144 57.1463L118.136 57.1496L118.895 59ZM125.895 54.4L124.481 52.9857L125.895 54.4ZM130.495 47.2999L128.648 46.5339L128.64 46.5533L128.632 46.5729L130.495 47.2999ZM130.495 29.0999L128.632 29.827L128.64 29.8466L128.648 29.866L130.495 29.0999ZM125.895 21.9999L124.457 23.39L124.469 23.4022L124.481 23.4142L125.895 21.9999ZM118.995 17.3999L118.253 19.2569L118.995 17.3999ZM101.595 17.3999L100.853 15.543L100.844 15.5463L100.836 15.5496L101.595 17.3999ZM94.6953 21.9999L96.1095 23.4142L94.6953 21.9999ZM89.9953 29.0999L88.1478 28.3339L88.1398 28.3533L88.1322 28.3729L89.9953 29.0999ZM89.9953 47.2999L88.1263 48.0119L88.1367 48.0391L88.1478 48.066L89.9953 47.2999ZM94.5953 54.4L93.1573 55.79L93.1691 55.8022L93.1811 55.8142L94.5953 54.4ZM101.595 59L102.338 57.143L101.595 59ZM110.395 74.3999V72.3999C105.082 72.3999 100.192 71.5365 95.7062 69.8306L94.9953 71.7L94.2844 73.5693C99.265 75.4634 104.642 76.3999 110.395 76.3999V74.3999ZM94.9953 71.7L95.7151 69.8339C91.2779 68.1225 87.4356 65.7245 84.1669 62.6444L82.7953 64.0999L81.4237 65.5555C85.0884 69.0088 89.3794 71.6774 94.2756 73.566L94.9953 71.7ZM82.7953 64.0999L84.181 62.6577C80.9734 59.576 78.4565 55.9605 76.6264 51.7954L74.7953 52.5999L72.9643 53.4045C75.0008 58.0394 77.8172 62.0906 81.4097 65.5422L82.7953 64.0999ZM74.7953 52.5999L76.6365 51.8189C74.8835 47.6869 73.9953 43.1554 73.9953 38.1999H71.9953H69.9953C69.9953 43.6445 70.9738 48.713 72.9541 53.3811L74.7953 52.5999ZM71.9953 38.1999H73.9953C73.9953 33.2445 74.8835 28.713 76.6365 24.581L74.7953 23.7999L72.9541 23.0189C70.9738 27.6869 69.9953 32.7554 69.9953 38.1999H71.9953ZM74.7953 23.7999L76.6264 24.6045C78.4528 20.4479 80.9973 16.8365 84.2669 13.7555L82.8953 12.2999L81.5237 10.8444C77.86 14.2967 75.0045 18.352 72.9643 22.9954L74.7953 23.7999ZM82.8953 12.2999L84.2669 13.7555C87.5356 10.6754 91.3779 8.27742 95.8151 6.56595L95.0953 4.69994L94.3756 2.83394C89.4794 4.72247 85.1884 7.39112 81.5237 10.8444L82.8953 12.2999ZM95.0953 4.69994L95.8151 6.56595C100.232 4.86241 105.052 3.99995 110.295 3.99995V1.99995V-5.00679e-05C104.605 -5.00679e-05 99.2923 0.937484 94.3756 2.83394L95.0953 4.69994ZM110.295 1.99995V3.99995C115.609 3.99995 120.425 4.86359 124.767 6.56243L125.495 4.69994L126.224 2.83746C121.366 0.936311 116.048 -5.00679e-05 110.295 -5.00679e-05V1.99995ZM125.495 4.69994L124.776 6.56595C129.21 8.27622 133.013 10.6706 136.21 13.7422L137.595 12.2999L138.981 10.8577C135.378 7.39594 131.114 4.72367 126.215 2.83394L125.495 4.69994ZM137.595 12.2999L136.224 13.7555C139.493 16.8365 142.038 20.4479 143.864 24.6045L145.695 23.7999L147.526 22.9954C145.486 18.352 142.631 14.2967 138.967 10.8444L137.595 12.2999ZM145.695 23.7999L143.869 24.6148C145.676 28.6648 146.595 33.183 146.595 38.1999H148.595H150.595C150.595 32.6835 149.582 27.6017 147.522 22.9851L145.695 23.7999ZM148.595 38.1999H146.595C146.595 43.1456 145.677 47.7065 143.86 51.9055L145.695 52.7L147.531 53.4944C149.58 48.7601 150.595 43.6543 150.595 38.1999H148.595ZM145.695 52.7L143.864 51.8954C142.038 56.052 139.493 59.6634 136.224 62.7444L137.595 64.2L138.967 65.6555C142.631 62.2032 145.486 58.1479 147.526 53.5045L145.695 52.7ZM137.595 64.2L136.225 62.7435C133.026 65.7538 129.218 68.1204 124.776 69.8339L125.495 71.7L126.215 73.566C131.106 71.6795 135.364 69.0461 138.966 65.6563L137.595 64.2ZM125.495 71.7L124.767 69.8375C120.422 71.5374 115.639 72.3999 110.395 72.3999V74.3999V76.3999C116.085 76.3999 121.368 75.4625 126.224 73.5624L125.495 71.7ZM110.295 60.6V62.6C113.659 62.6 116.787 62.0265 119.654 60.8503L118.895 59L118.136 57.1496C115.803 58.1067 113.198 58.6 110.295 58.6V60.6ZM118.895 59L119.638 60.8569C122.552 59.6912 125.115 58.0087 127.31 55.8142L125.895 54.4L124.481 52.9857C122.676 54.7912 120.572 56.1753 118.153 57.143L118.895 59ZM125.895 54.4L127.31 55.8142C129.512 53.6113 131.195 51.0081 132.358 48.027L130.495 47.2999L128.632 46.5729C127.662 49.0584 126.278 51.1886 124.481 52.9857L125.895 54.4ZM130.495 47.2999L132.343 48.066C133.589 45.0609 134.195 41.763 134.195 38.1999H132.195H130.195C130.195 41.3036 129.669 44.0723 128.648 46.5339L130.495 47.2999ZM132.195 38.1999H134.195C134.195 34.6369 133.589 31.339 132.343 28.3339L130.495 29.0999L128.648 29.866C129.669 32.3276 130.195 35.0963 130.195 38.1999H132.195ZM130.495 29.0999L132.358 28.3729C131.195 25.3918 129.512 22.7886 127.31 20.5857L125.895 21.9999L124.481 23.4142C126.278 25.2113 127.662 27.3415 128.632 29.827L130.495 29.0999ZM125.895 21.9999L127.333 20.6099C125.197 18.4003 122.658 16.711 119.738 15.543L118.995 17.3999L118.253 19.2569C120.666 20.2222 122.727 21.5996 124.457 23.39L125.895 21.9999ZM118.995 17.3999L119.738 15.543C116.815 14.3736 113.66 13.8 110.295 13.8V15.8V17.8C113.197 17.8 115.843 18.293 118.253 19.2569L118.995 17.3999ZM110.295 15.8V13.8C106.931 13.8 103.776 14.3736 100.853 15.543L101.595 17.3999L102.338 19.2569C104.748 18.293 107.393 17.8 110.295 17.8V15.8ZM101.595 17.3999L100.836 15.5496C97.9895 16.7175 95.4672 18.3996 93.2811 20.5857L94.6953 21.9999L96.1095 23.4142C97.9234 21.6002 100.001 20.2157 102.354 19.2503L101.595 17.3999ZM94.6953 21.9999L93.2811 20.5857C91.087 22.7798 89.3769 25.3696 88.1478 28.3339L89.9953 29.0999L91.8428 29.866C92.8803 27.3637 94.3036 25.2201 96.1095 23.4142L94.6953 21.9999ZM89.9953 29.0999L88.1322 28.3729C86.9636 31.3673 86.3953 34.6514 86.3953 38.1999H88.3953H90.3953C90.3953 35.0818 90.8937 32.2993 91.8585 29.827L89.9953 29.0999ZM88.3953 38.1999H86.3953C86.3953 41.6879 86.9655 44.9649 88.1263 48.0119L89.9953 47.2999L91.8643 46.588C90.8917 44.035 90.3953 41.2453 90.3953 38.1999H88.3953ZM89.9953 47.2999L88.1478 48.066C89.3711 51.0162 91.0387 53.5983 93.1573 55.79L94.5953 54.4L96.0333 53.0099C94.2853 51.2016 92.8862 49.0503 91.8428 46.5339L89.9953 47.2999ZM94.5953 54.4L93.1811 55.8142C95.3756 58.0087 97.9384 59.6912 100.853 60.8569L101.595 59L102.338 57.143C99.9189 56.1753 97.815 54.7912 96.0095 52.9857L94.5953 54.4ZM101.595 59L100.853 60.8569C103.776 62.0263 106.931 62.6 110.295 62.6V60.6V58.6C107.393 58.6 104.748 58.1069 102.338 57.143L101.595 59ZM166.075 73.2H164.075V75.2H166.075V73.2ZM166.075 3.19995V1.19995H164.075V3.19995H166.075ZM212.575 6.29995L211.745 8.11976L211.757 8.12484L211.768 8.12978L212.575 6.29995ZM223.075 14.9999L221.397 16.0889V16.0889L223.075 14.9999ZM223.075 42.0999L221.397 41.011L223.075 42.0999ZM212.575 50.9L213.382 52.7298L213.393 52.7248L213.405 52.7198L212.575 50.9ZM175.075 53.9L173.651 52.4955L170.293 55.9H175.075V53.9ZM182.275 46.6H184.275V41.724L180.851 45.1955L182.275 46.6ZM182.275 73.2V75.2H184.275V73.2H182.275ZM182.275 48.4L180.814 49.7659L184.275 53.4671V48.4H182.275ZM175.075 40.7V38.7H170.467L173.614 42.0659L175.075 40.7ZM175.075 16.3999L173.614 15.034L170.467 18.3999H175.075V16.3999ZM182.275 8.69995H184.275V3.63277L180.814 7.33396L182.275 8.69995ZM166.075 73.2H168.075V3.19995H166.075H164.075V73.2H166.075ZM166.075 3.19995V5.19995H196.375V3.19995V1.19995H166.075V3.19995ZM196.375 3.19995V5.19995C202.427 5.19995 207.531 6.1983 211.745 8.11976L212.575 6.29995L213.405 4.48013C208.553 2.26826 202.856 1.19995 196.375 1.19995V3.19995ZM212.575 6.29995L211.768 8.12978C215.98 9.98805 219.162 12.6457 221.397 16.0889L223.075 14.9999L224.753 13.911C222.054 9.7542 218.237 6.61184 213.382 4.47011L212.575 6.29995ZM223.075 14.9999L221.397 16.0889C223.621 19.5147 224.775 23.6556 224.775 28.6H226.775H228.775C228.775 23.011 227.462 18.0852 224.753 13.911L223.075 14.9999ZM226.775 28.6H224.775C224.775 33.472 223.624 37.5811 221.397 41.011L223.075 42.0999L224.753 43.1889C227.459 39.0188 228.775 34.1279 228.775 28.6H226.775ZM223.075 42.0999L221.397 41.011C219.159 44.4601 215.968 47.1551 211.745 49.0801L212.575 50.9L213.405 52.7198C218.249 50.5115 222.058 47.3398 224.753 43.1889L223.075 42.0999ZM212.575 50.9L211.768 49.0701C207.547 50.9324 202.435 51.9 196.375 51.9V53.9V55.9C202.849 55.9 208.537 54.8675 213.382 52.7298L212.575 50.9ZM196.375 53.9V51.9H175.075V53.9V55.9H196.375V53.9ZM175.075 53.9L176.499 55.3044L183.699 48.0044L182.275 46.6L180.851 45.1955L173.651 52.4955L175.075 53.9ZM182.275 46.6H180.275V73.2H182.275H184.275V46.6H182.275ZM182.275 73.2V71.2H166.075V73.2V75.2H182.275V73.2ZM182.275 48.4L183.736 47.034L176.536 39.334L175.075 40.7L173.614 42.0659L180.814 49.7659L182.275 48.4ZM175.075 40.7V42.7H195.475V40.7V38.7H175.075V40.7ZM195.475 40.7V42.7C200.71 42.7 205.003 41.5905 207.983 39.0127L206.675 37.5L205.367 35.9872C203.414 37.6761 200.24 38.7 195.475 38.7V40.7ZM206.675 37.5L207.983 39.0127C210.964 36.4351 212.375 32.8746 212.375 28.6H210.375H208.375C208.375 31.9253 207.32 34.2981 205.367 35.9872L206.675 37.5ZM210.375 28.6H212.375C212.375 24.2712 210.972 20.6717 207.983 18.0872L206.675 19.5999L205.367 21.1127C207.312 22.7948 208.375 25.1954 208.375 28.6H210.375ZM206.675 19.5999L207.983 18.0872C205.003 15.5094 200.71 14.3999 195.475 14.3999V16.3999V18.3999C200.24 18.3999 203.414 19.4238 205.367 21.1127L206.675 19.5999ZM195.475 16.3999V14.3999H175.075V16.3999V18.3999H195.475V16.3999ZM175.075 16.3999L176.536 17.7659L183.736 10.0659L182.275 8.69995L180.814 7.33396L173.614 15.034L175.075 16.3999ZM182.275 8.69995H180.275V48.4H182.275H184.275V8.69995H182.275ZM242.462 73.2H240.462V75.2H242.462V73.2ZM242.462 3.19995V1.19995H240.462V3.19995H242.462ZM291.862 3.19995L293.862 3.2151L293.877 1.19995H291.862V3.19995ZM291.762 16.3999V18.3999H293.747L293.762 16.4151L291.762 16.3999ZM254.762 16.3999L253.348 14.9857L249.933 18.3999H254.762V16.3999ZM258.462 12.6999L260.462 12.6966L260.454 7.87949L257.048 11.2857L258.462 12.6999ZM258.562 73.2V75.2H260.565L260.562 73.1966L258.562 73.2ZM242.462 73.2H244.462V3.19995H242.462H240.462V73.2H242.462ZM242.462 3.19995V5.19995H291.862V3.19995V1.19995H242.462V3.19995ZM291.862 3.19995L289.862 3.1848L289.762 16.3848L291.762 16.3999L293.762 16.4151L293.862 3.2151L291.862 3.19995ZM291.762 16.3999V14.3999H254.762V16.3999V18.3999H291.762V16.3999ZM254.762 16.3999L256.176 17.8142L259.876 14.1142L258.462 12.6999L257.048 11.2857L253.348 14.9857L254.762 16.3999ZM258.462 12.6999L256.462 12.7033L256.562 73.2033L258.562 73.2L260.562 73.1966L260.462 12.6966L258.462 12.6999ZM258.562 73.2V71.2H242.462V73.2V75.2H258.562V73.2ZM317.71 71.7L316.99 73.566L316.999 73.5693L317.71 71.7ZM305.51 64.0999L304.125 65.5422L304.132 65.5489L304.139 65.5555L305.51 64.0999ZM297.51 52.5999L295.669 53.3811L295.674 53.3928L295.679 53.4045L297.51 52.5999ZM297.51 23.7999L295.679 22.9954L295.674 23.0071L295.669 23.0189L297.51 23.7999ZM305.61 12.2999L304.239 10.8444L305.61 12.2999ZM317.81 4.69994L317.09 2.83394V2.83394L317.81 4.69994ZM348.21 4.69994L347.481 6.56245L347.49 6.56595L348.21 4.69994ZM360.31 12.2999L358.924 13.7422L358.931 13.7489L358.939 13.7555L360.31 12.2999ZM368.41 23.7999L366.579 24.6045L366.584 24.6148L368.41 23.7999ZM368.41 52.7L370.241 53.5045L370.246 53.4944L368.41 52.7ZM360.31 64.2L361.681 65.6563L361.682 65.6555L360.31 64.2ZM348.21 71.7L347.49 69.8339L347.481 69.8375L348.21 71.7ZM341.61 59L340.867 57.143L340.859 57.1463L340.851 57.1496L341.61 59ZM348.61 54.4L347.196 52.9857L348.61 54.4ZM353.21 47.2999L351.363 46.5339L351.355 46.5533L351.347 46.5729L353.21 47.2999ZM353.21 29.0999L351.347 29.827L351.355 29.8466L351.363 29.866L353.21 29.0999ZM348.61 21.9999L347.172 23.39L347.184 23.4022L347.196 23.4142L348.61 21.9999ZM341.71 17.3999L340.967 19.2569L341.71 17.3999ZM324.31 17.3999L323.567 15.543L323.559 15.5463L323.551 15.5496L324.31 17.3999ZM317.41 21.9999L318.824 23.4142L317.41 21.9999ZM312.71 29.0999L310.863 28.3339L310.855 28.3533L310.847 28.3729L312.71 29.0999ZM312.71 47.2999L310.841 48.0119L310.852 48.0391L310.863 48.066L312.71 47.2999ZM317.31 54.4L315.872 55.79L315.884 55.8022L315.896 55.8142L317.31 54.4ZM324.31 59L325.053 57.143L324.31 59ZM333.11 74.3999V72.3999C327.797 72.3999 322.907 71.5365 318.421 69.8306L317.71 71.7L316.999 73.5693C321.98 75.4634 327.356 76.3999 333.11 76.3999V74.3999ZM317.71 71.7L318.43 69.8339C313.993 68.1225 310.15 65.7245 306.882 62.6444L305.51 64.0999L304.139 65.5555C307.803 69.0088 312.094 71.6774 316.99 73.566L317.71 71.7ZM305.51 64.0999L306.896 62.6577C303.688 59.576 301.171 55.9605 299.341 51.7954L297.51 52.5999L295.679 53.4045C297.716 58.0394 300.532 62.0906 304.125 65.5422L305.51 64.0999ZM297.51 52.5999L299.351 51.8189C297.598 47.6869 296.71 43.1554 296.71 38.1999H294.71H292.71C292.71 43.6445 293.689 48.713 295.669 53.3811L297.51 52.5999ZM294.71 38.1999H296.71C296.71 33.2445 297.598 28.713 299.351 24.581L297.51 23.7999L295.669 23.0189C293.689 27.6869 292.71 32.7554 292.71 38.1999H294.71ZM297.51 23.7999L299.341 24.6045C301.168 20.4479 303.712 16.8365 306.982 13.7555L305.61 12.2999L304.239 10.8444C300.575 14.2967 297.719 18.352 295.679 22.9954L297.51 23.7999ZM305.61 12.2999L306.982 13.7555C310.25 10.6754 314.093 8.27742 318.53 6.56595L317.81 4.69994L317.09 2.83394C312.194 4.72247 307.903 7.39112 304.239 10.8444L305.61 12.2999ZM317.81 4.69994L318.53 6.56595C322.946 4.86241 327.767 3.99995 333.01 3.99995V1.99995V-5.00679e-05C327.32 -5.00679e-05 322.007 0.937484 317.09 2.83394L317.81 4.69994ZM333.01 1.99995V3.99995C338.324 3.99995 343.14 4.86359 347.481 6.56243L348.21 4.69994L348.939 2.83746C344.08 0.936311 338.763 -5.00679e-05 333.01 -5.00679e-05V1.99995ZM348.21 4.69994L347.49 6.56595C351.924 8.27622 355.728 10.6706 358.924 13.7422L360.31 12.2999L361.696 10.8577C358.093 7.39594 353.829 4.72367 348.93 2.83394L348.21 4.69994ZM360.31 12.2999L358.939 13.7555C362.208 16.8365 364.753 20.4479 366.579 24.6045L368.41 23.7999L370.241 22.9954C368.201 18.352 365.345 14.2967 361.682 10.8444L360.31 12.2999ZM368.41 23.7999L366.584 24.6148C368.391 28.6648 369.31 33.183 369.31 38.1999H371.31H373.31C373.31 32.6835 372.296 27.6017 370.237 22.9851L368.41 23.7999ZM371.31 38.1999H369.31C369.31 43.1456 368.392 47.7065 366.575 51.9055L368.41 52.7L370.246 53.4944C372.295 48.7601 373.31 43.6543 373.31 38.1999H371.31ZM368.41 52.7L366.579 51.8954C364.753 56.052 362.208 59.6634 358.939 62.7444L360.31 64.2L361.682 65.6555C365.345 62.2032 368.201 58.1479 370.241 53.5045L368.41 52.7ZM360.31 64.2L358.939 62.7435C355.741 65.7538 351.933 68.1204 347.49 69.8339L348.21 71.7L348.93 73.566C353.821 71.6795 358.079 69.0461 361.681 65.6563L360.31 64.2ZM348.21 71.7L347.481 69.8375C343.137 71.5374 338.354 72.3999 333.11 72.3999V74.3999V76.3999C338.8 76.3999 344.083 75.4625 348.939 73.5624L348.21 71.7ZM333.01 60.6V62.6C336.374 62.6 339.502 62.0265 342.369 60.8503L341.61 59L340.851 57.1496C338.518 58.1067 335.913 58.6 333.01 58.6V60.6ZM341.61 59L342.353 60.8569C345.267 59.6912 347.83 58.0087 350.024 55.8142L348.61 54.4L347.196 52.9857C345.39 54.7912 343.287 56.1753 340.867 57.143L341.61 59ZM348.61 54.4L350.024 55.8142C352.227 53.6113 353.91 51.0081 355.073 48.027L353.21 47.2999L351.347 46.5729C350.377 49.0584 348.993 51.1886 347.196 52.9857L348.61 54.4ZM353.21 47.2999L355.058 48.066C356.304 45.0609 356.91 41.763 356.91 38.1999H354.91H352.91C352.91 41.3036 352.383 44.0723 351.363 46.5339L353.21 47.2999ZM354.91 38.1999H356.91C356.91 34.6369 356.304 31.339 355.058 28.3339L353.21 29.0999L351.363 29.866C352.383 32.3276 352.91 35.0963 352.91 38.1999H354.91ZM353.21 29.0999L355.073 28.3729C353.91 25.3918 352.227 22.7886 350.024 20.5857L348.61 21.9999L347.196 23.4142C348.993 25.2113 350.377 27.3415 351.347 29.827L353.21 29.0999ZM348.61 21.9999L350.048 20.6099C347.912 18.4003 345.373 16.711 342.453 15.543L341.71 17.3999L340.967 19.2569C343.381 20.2222 345.441 21.5996 347.172 23.39L348.61 21.9999ZM341.71 17.3999L342.453 15.543C339.529 14.3736 336.375 13.8 333.01 13.8V15.8V17.8C335.912 17.8 338.558 18.293 340.967 19.2569L341.71 17.3999ZM333.01 15.8V13.8C329.646 13.8 326.491 14.3736 323.567 15.543L324.31 17.3999L325.053 19.2569C327.463 18.293 330.108 17.8 333.01 17.8V15.8ZM324.31 17.3999L323.551 15.5496C320.704 16.7175 318.182 18.3996 315.996 20.5857L317.41 21.9999L318.824 23.4142C320.638 21.6002 322.716 20.2157 325.069 19.2503L324.31 17.3999ZM317.41 21.9999L315.996 20.5857C313.802 22.7798 312.092 25.3696 310.863 28.3339L312.71 29.0999L314.558 29.866C315.595 27.3637 317.018 25.2201 318.824 23.4142L317.41 21.9999ZM312.71 29.0999L310.847 28.3729C309.678 31.3673 309.11 34.6514 309.11 38.1999H311.11H313.11C313.11 35.0818 313.609 32.2993 314.573 29.827L312.71 29.0999ZM311.11 38.1999H309.11C309.11 41.6879 309.68 44.9649 310.841 48.0119L312.71 47.2999L314.579 46.588C313.607 44.035 313.11 41.2453 313.11 38.1999H311.11ZM312.71 47.2999L310.863 48.066C312.086 51.0162 313.754 53.5983 315.872 55.79L317.31 54.4L318.748 53.0099C317 51.2016 315.601 49.0503 314.558 46.5339L312.71 47.2999ZM317.31 54.4L315.896 55.8142C318.09 58.0087 320.653 59.6912 323.567 60.8569L324.31 59L325.053 57.143C322.634 56.1753 320.53 54.7912 318.724 52.9857L317.31 54.4ZM324.31 59L323.567 60.8569C326.491 62.0263 329.646 62.6 333.01 62.6V60.6V58.6C330.108 58.6 327.463 58.1069 325.053 57.143L324.31 59ZM388.79 73.2H386.79V75.2H388.79V73.2ZM388.79 3.19995V1.19995H386.79V3.19995H388.79ZM440.39 7.89995L441.527 6.25469V6.25469L440.39 7.89995ZM440.79 34.6999L441.974 36.312L441.982 36.306L441.99 36.2999L440.79 34.6999ZM423.79 39.3999L421.968 38.5756L420.69 41.3999H423.79V39.3999ZM425.69 35.1999V33.1999H424.399L423.868 34.3756L425.69 35.1999ZM443.99 39.9L445.162 38.2793L443.99 39.9ZM443.49 68L444.694 69.5972L444.697 69.5945L443.49 68ZM404.89 61.2H402.89V63.2H404.89V61.2ZM431.19 59L432.399 60.5933L431.19 59ZM431.19 45.7L429.981 47.2933L429.999 47.3068L430.017 47.3198L431.19 45.7ZM404.89 43.5V41.5H402.89V43.5H404.89ZM404.89 32.1999H402.89V34.1999H404.89V32.1999ZM427.99 30.0999L429.218 31.6787L429.236 31.6647L429.253 31.6504L427.99 30.0999ZM427.99 17.3999L426.727 18.9504L426.744 18.9647L426.762 18.9787L427.99 17.3999ZM404.89 15.1999V13.1999H402.89V15.1999H404.89ZM388.79 73.2H390.79V3.19995H388.79H386.79V73.2H388.79ZM388.79 3.19995V5.19995H421.39V3.19995V1.19995H388.79V3.19995ZM421.39 3.19995V5.19995C429.3 5.19995 435.178 6.72881 439.253 9.5452L440.39 7.89995L441.527 6.25469C436.535 2.80441 429.746 1.19995 421.39 1.19995V3.19995ZM440.39 7.89995L439.253 9.5452C443.213 12.2824 445.19 16.1159 445.19 21.2999H447.19H449.19C449.19 14.884 446.633 9.78415 441.527 6.25469L440.39 7.89995ZM447.19 21.2999H445.19C445.19 26.4586 443.311 30.3094 439.59 33.0999L440.79 34.6999L441.99 36.2999C446.802 32.6905 449.19 27.6079 449.19 21.2999H447.19ZM440.79 34.6999L439.606 33.0879C435.781 35.8968 430.572 37.3999 423.79 37.3999V39.3999V41.3999C431.141 41.3999 437.265 39.7698 441.974 36.312L440.79 34.6999ZM423.79 39.3999L425.612 40.2243L427.512 36.0243L425.69 35.1999L423.868 34.3756L421.968 38.5756L423.79 39.3999ZM425.69 35.1999V37.1999C433.325 37.1999 438.952 38.7254 442.818 41.5207L443.99 39.9L445.162 38.2793C440.361 34.8078 433.788 33.1999 425.69 33.1999V35.1999ZM443.99 39.9L442.818 41.5207C446.569 44.2326 448.49 48.1269 448.49 53.5H450.49H452.49C452.49 47.0063 450.078 41.834 445.162 38.2793L443.99 39.9ZM450.49 53.5H448.49C448.49 59.042 446.423 63.2708 442.283 66.4054L443.49 68L444.697 69.5945C449.89 65.6624 452.49 60.2246 452.49 53.5H450.49ZM443.49 68L442.286 66.4027C438.175 69.5007 431.943 71.2 423.29 71.2V73.2V75.2C432.37 75.2 439.604 73.4325 444.694 69.5972L443.49 68ZM423.29 73.2V71.2H388.79V73.2V75.2H423.29V73.2ZM404.89 61.2V63.2H422.69V61.2V59.2H404.89V61.2ZM422.69 61.2V63.2C426.638 63.2 429.975 62.432 432.399 60.5933L431.19 59L429.981 57.4066C428.538 58.5012 426.208 59.2 422.69 59.2V61.2ZM431.19 59L432.399 60.5933C434.959 58.6507 436.09 55.7103 436.09 52.2H434.09H432.09C432.09 54.8229 431.287 56.4159 429.981 57.4066L431.19 59ZM434.09 52.2H436.09C436.09 48.7901 434.936 45.9434 432.363 44.0801L431.19 45.7L430.017 47.3198C431.31 48.2565 432.09 49.7431 432.09 52.2H434.09ZM431.19 45.7L432.399 44.1066C429.975 42.2679 426.638 41.5 422.69 41.5V43.5V45.5C426.208 45.5 428.538 46.1987 429.981 47.2933L431.19 45.7ZM422.69 43.5V41.5H404.89V43.5V45.5H422.69V43.5ZM404.89 43.5H402.89V61.2H404.89H406.89V43.5H404.89ZM404.89 32.1999V34.1999H419.99V32.1999V30.1999H404.89V32.1999ZM419.99 32.1999V34.1999C423.738 34.1999 426.92 33.4656 429.218 31.6787L427.99 30.0999L426.762 28.5212C425.459 29.5343 423.309 30.1999 419.99 30.1999V32.1999ZM427.99 30.0999L429.253 31.6504C431.616 29.7252 432.69 26.9643 432.69 23.6999H430.69H428.69C428.69 26.0356 427.964 27.5414 426.727 28.5495L427.99 30.0999ZM430.69 23.6999H432.69C432.69 20.4387 431.616 17.6866 429.218 15.8212L427.99 17.3999L426.762 18.9787C427.964 19.9133 428.69 21.3612 428.69 23.6999H430.69ZM427.99 17.3999L429.253 15.8495C426.952 13.9743 423.754 13.1999 419.99 13.1999V15.1999V17.1999C423.292 17.1999 425.428 17.8922 426.727 18.9504L427.99 17.3999ZM419.99 15.1999V13.1999H404.89V15.1999V17.1999H419.99V15.1999ZM404.89 15.1999H402.89V32.1999H404.89H406.89V15.1999H404.89ZM465.202 74L464.89 75.9755L464.897 75.9767L464.905 75.9778L465.202 74ZM461.002 73.2L459.007 73.0544L458.88 74.7856L460.577 75.1543L461.002 73.2ZM462.002 59.5L462.551 57.5769L460.186 56.9012L460.007 59.3544L462.002 59.5ZM471.302 56.5999L472.942 57.7435L472.95 57.7321L472.958 57.7206L471.302 56.5999ZM474.602 46.8999L472.626 46.5864L474.602 46.8999ZM475.902 31.6L473.903 31.5296L473.903 31.5333L475.902 31.6ZM476.902 3.19995V1.19995H474.971L474.903 3.12957L476.902 3.19995ZM530.702 3.19995H532.702V1.19995H530.702V3.19995ZM530.702 73.2V75.2H532.702V73.2H530.702ZM514.702 73.2H512.702V75.2H514.702V73.2ZM514.702 12.6999L516.116 11.2857L512.702 7.87152V12.6999H514.702ZM518.402 16.3999V18.3999H523.23L519.816 14.9857L518.402 16.3999ZM487.502 16.3999L485.975 15.1081L483.189 18.3999H487.502V16.3999ZM490.802 12.4999L492.801 12.5648L492.987 6.82115L489.275 11.2081L490.802 12.4999ZM490.202 30.9999L488.203 30.9351L488.202 30.9417L490.202 30.9999ZM488.802 49.2999L490.783 49.5724L488.802 49.2999ZM485.402 62.9L483.552 62.1401L485.402 62.9ZM479.102 71.3999L477.928 69.7807L479.102 71.3999ZM469.002 74.2999V72.2999C467.912 72.2999 466.745 72.2091 465.498 72.0221L465.202 74L464.905 75.9778C466.325 76.1908 467.691 76.2999 469.002 76.2999V74.2999ZM465.202 74L465.513 72.0244C464.292 71.8315 462.93 71.5725 461.426 71.2456L461.002 73.2L460.577 75.1543C462.14 75.4941 463.578 75.7684 464.89 75.9755L465.202 74ZM461.002 73.2L462.996 73.3456L463.996 59.6455L462.002 59.5L460.007 59.3544L459.007 73.0544L461.002 73.2ZM462.002 59.5L461.452 61.423C462.569 61.7422 463.721 61.9 464.902 61.9V59.9V57.9C464.082 57.9 463.3 57.791 462.551 57.5769L462.002 59.5ZM464.902 59.9V61.9C468.274 61.9 471.026 60.4924 472.942 57.7435L471.302 56.5999L469.661 55.4564C468.51 57.1075 466.996 57.9 464.902 57.9V59.9ZM471.302 56.5999L472.958 57.7206C474.721 55.1143 475.887 51.5586 476.577 47.2135L474.602 46.8999L472.626 46.5864C471.983 50.6413 470.949 53.5523 469.645 55.4793L471.302 56.5999ZM474.602 46.8999L476.577 47.2135C477.261 42.9062 477.699 37.7186 477.9 31.6666L475.902 31.6L473.903 31.5333C473.704 37.4813 473.276 42.4937 472.626 46.5864L474.602 46.8999ZM475.902 31.6L477.9 31.6703L478.9 3.27033L476.902 3.19995L474.903 3.12957L473.903 31.5296L475.902 31.6ZM476.902 3.19995V5.19995H530.702V3.19995V1.19995H476.902V3.19995ZM530.702 3.19995H528.702V73.2H530.702H532.702V3.19995H530.702ZM530.702 73.2V71.2H514.702V73.2V75.2H530.702V73.2ZM514.702 73.2H516.702V12.6999H514.702H512.702V73.2H514.702ZM514.702 12.6999L513.287 14.1142L516.987 17.8142L518.402 16.3999L519.816 14.9857L516.116 11.2857L514.702 12.6999ZM518.402 16.3999V14.3999H487.502V16.3999V18.3999H518.402V16.3999ZM487.502 16.3999L489.028 17.6918L492.328 13.7918L490.802 12.4999L489.275 11.2081L485.975 15.1081L487.502 16.3999ZM490.802 12.4999L488.803 12.4351L488.203 30.9351L490.202 30.9999L492.201 31.0648L492.801 12.5648L490.802 12.4999ZM490.202 30.9999L488.202 30.9417C488.004 37.7552 487.542 43.7814 486.82 49.0275L488.802 49.2999L490.783 49.5724C491.528 44.1518 491.999 37.978 492.201 31.0582L490.202 30.9999ZM488.802 49.2999L486.82 49.0275C486.103 54.2454 485.003 58.6051 483.552 62.1401L485.402 62.9L487.252 63.6598C488.866 59.7282 490.034 55.0212 490.783 49.5724L488.802 49.2999ZM485.402 62.9L483.552 62.1401C482.128 65.6072 480.232 68.1099 477.928 69.7807L479.102 71.3999L480.276 73.0192C483.304 70.8233 485.609 67.6593 487.252 63.6598L485.402 62.9ZM479.102 71.3999L477.928 69.7807C475.676 71.4135 472.747 72.2999 469.002 72.2999V74.2999V76.2999C473.389 76.2999 477.194 75.2531 480.276 73.0192L479.102 71.3999ZM593.084 73.2H591.084V75.2H593.084V73.2ZM593.084 51.0999L594.401 49.5948L591.084 46.6924V51.0999H593.084ZM597.084 54.5999V56.5999H602.407L598.401 53.0948L597.084 54.5999ZM562.184 51.5999L561.357 53.4207L562.184 51.5999ZM552.084 42.9L550.38 43.9465L552.084 42.9ZM552.284 15.2999L550.603 14.217L550.598 14.2243L552.284 15.2999ZM562.884 6.29995L563.714 8.11976L562.884 6.29995ZM609.084 3.19995H611.084V1.19995H609.084V3.19995ZM609.084 73.2V75.2H611.084V73.2H609.084ZM548.784 73.2L547.141 72.0605L544.964 75.2H548.784V73.2ZM566.184 48.0999V46.0999H565.137L564.541 46.9605L566.184 48.0999ZM582.584 48.0999L584.25 49.2078L586.317 46.0999H582.584V48.0999ZM565.884 73.2V75.2H566.956L567.549 74.3078L565.884 73.2ZM593.084 45.9H591.084V50.814L594.516 47.2966L593.084 45.9ZM593.084 12.1999L594.533 10.8206L591.084 7.19995V12.1999H593.084ZM597.084 16.3999V18.3999H601.751L598.533 15.0206L597.084 16.3999ZM568.684 19.5999L567.376 18.0872L567.366 18.0961L567.356 18.1051L568.684 19.5999ZM568.584 38.5L567.212 39.9551V39.9551L568.584 38.5ZM597.084 41.7999L598.516 43.1966L601.83 39.7999H597.084V41.7999ZM593.084 73.2H595.084V51.0999H593.084H591.084V73.2H593.084ZM593.084 51.0999L591.767 52.6051L595.767 56.1051L597.084 54.5999L598.401 53.0948L594.401 49.5948L593.084 51.0999ZM597.084 54.5999V52.5999H577.884V54.5999V56.5999H597.084V54.5999ZM577.884 54.5999V52.5999C572.033 52.5999 567.095 51.635 563.012 49.7792L562.184 51.5999L561.357 53.4207C566.074 55.5649 571.603 56.5999 577.884 56.5999V54.5999ZM562.184 51.5999L563.012 49.7792C558.943 47.9297 555.896 45.2851 553.789 41.8534L552.084 42.9L550.38 43.9465C552.94 48.1148 556.626 51.2702 561.357 53.4207L562.184 51.5999ZM552.084 42.9L553.789 41.8534C551.681 38.4213 550.584 34.2648 550.584 29.2999H548.584H546.584C546.584 34.8684 547.821 39.7786 550.38 43.9465L552.084 42.9ZM548.584 29.2999H550.584C550.584 24.1404 551.745 19.8637 553.971 16.3756L552.284 15.2999L550.598 14.2243C547.89 18.4695 546.584 23.5262 546.584 29.2999H548.584ZM552.284 15.2999L553.966 16.3829C556.278 12.7929 559.506 10.0383 563.714 8.11976L562.884 6.29995L562.055 4.48013C557.196 6.69495 553.357 9.9403 550.603 14.217L552.284 15.2999ZM562.884 6.29995L563.714 8.11976C567.934 6.19597 572.973 5.19995 578.884 5.19995V3.19995V1.19995C572.529 1.19995 566.901 2.27059 562.055 4.48013L562.884 6.29995ZM578.884 3.19995V5.19995H609.084V3.19995V1.19995H578.884V3.19995ZM609.084 3.19995H607.084V73.2H609.084H611.084V3.19995H609.084ZM609.084 73.2V71.2H593.084V73.2V75.2H609.084V73.2ZM548.784 73.2L550.428 74.3394L567.828 49.2394L566.184 48.0999L564.541 46.9605L547.141 72.0605L548.784 73.2ZM566.184 48.0999V50.0999H582.584V48.0999V46.0999H566.184V48.0999ZM582.584 48.0999L580.919 46.9921L564.219 72.0921L565.884 73.2L567.549 74.3078L584.25 49.2078L582.584 48.0999ZM565.884 73.2V71.2H548.784V73.2V75.2H565.884V73.2ZM593.084 45.9H595.084V12.1999H593.084H591.084V45.9H593.084ZM593.084 12.1999L591.636 13.5793L595.636 17.7793L597.084 16.3999L598.533 15.0206L594.533 10.8206L593.084 12.1999ZM597.084 16.3999V14.3999H579.284V16.3999V18.3999H597.084V16.3999ZM579.284 16.3999V14.3999C574.399 14.3999 570.331 15.5318 567.376 18.0872L568.684 19.5999L569.993 21.1127C571.971 19.4015 574.969 18.3999 579.284 18.3999V16.3999ZM568.684 19.5999L567.356 18.1051C564.407 20.7264 563.084 24.5152 563.084 29.0999H565.084H567.084C567.084 25.2847 568.162 22.7401 570.013 21.0948L568.684 19.5999ZM565.084 29.0999H563.084C563.084 33.5608 564.377 37.2817 567.212 39.9551L568.584 38.5L569.956 37.0448C568.125 35.3182 567.084 32.7725 567.084 29.0999H565.084ZM568.584 38.5L567.212 39.9551C570.046 42.6272 574.052 43.7999 578.884 43.7999V41.7999V39.7999C574.65 39.7999 571.789 38.7727 569.956 37.0448L568.584 38.5ZM578.884 41.7999V43.7999H597.084V41.7999V39.7999H578.884V41.7999ZM597.084 41.7999L595.653 40.4033L591.653 44.5033L593.084 45.9L594.516 47.2966L598.516 43.1966L597.084 41.7999Z" fill="white" mask="url(#path-1-outside-1_148_3558)"/>
</svg>
