<svg width="206" height="136" viewBox="0 0 206 136" fill="none" xmlns="http://www.w3.org/2000/svg">
<path d="M136.755 45.5626V0.018456C166.958 -0.722204 195.386 20.9129 202.972 49.9416C214.346 93.3936 182.537 134.208 138.009 135.858C114.491 121.604 92.1229 105.179 68.8927 90.327V135.871C15.9946 135.26 -17.7473 79.0482 9.87044 32.7634C21.7663 12.8306 44.9312 -0.553282 68.4618 0.0574381L136.755 45.5626ZM53.9021 118.589V16.5079C2.67547 31.6719 2.24455 103.984 53.9021 118.589ZM151.746 118.589C188.778 108.22 202.711 63.0915 177.757 33.4261C171.555 26.0455 161.343 18.8598 151.746 17.3005V118.589ZM136.755 62.8316L68.8927 18.0802V71.8625L136.755 117.796V62.8316Z" fill="white"/>
</svg>
