<svg width="104" height="69" viewBox="0 0 104 69" fill="none" xmlns="http://www.w3.org/2000/svg">
  <path d="M69.2775 23.0811V0.00934943C84.5778 -0.365855 98.9785 10.5941 102.822 25.2994C108.583 47.3114 92.4695 67.9871 69.9125 68.8231C57.999 61.602 46.6676 53.2817 34.8997 45.7579V68.8297C8.10257 68.5203 -8.99042 40.0443 5.00017 16.5973C11.0264 6.49972 22.7613 -0.280282 34.6814 0.029097L69.2775 23.0811ZM27.3057 60.0749V8.36257C1.35534 16.0444 1.13705 52.6761 27.3057 60.0749ZM76.8714 60.0749C95.6314 54.822 102.69 31.9609 90.0484 16.933C86.9063 13.1941 81.7334 9.55401 76.8714 8.76411V60.0749ZM69.2775 31.8293L34.8997 9.15906V36.4041L69.2775 59.6734V31.8293Z" fill="#004C97" />
</svg>