<svg width="187" height="43" viewBox="0 0 187 43" fill="none" xmlns="http://www.w3.org/2000/svg">
<g clip-path="url(#clip0_2001_295)">
<path d="M185.889 25.8579H70.6343V26.53H185.889V25.8579Z" fill="white"/>
<path d="M39.3212 13.0426V0.00441327C48.008 -0.20981 56.1775 5.98585 58.3608 14.2943C61.6295 26.7361 52.4849 38.4175 39.6816 38.8922C32.9196 34.8093 26.4883 30.109 19.8068 25.8582V38.8964C4.59976 38.7242 -5.10445 22.628 2.83613 9.37982C6.25741 3.67141 12.9177 -0.159404 19.6881 0.0170146L39.3255 13.0426H39.3212ZM15.4995 33.9482V4.72572C0.771497 9.06478 0.644313 29.7688 15.4995 33.9482ZM43.6328 33.9482C54.2782 30.9785 58.2845 18.0579 51.1155 9.56464C49.3307 7.45181 46.397 5.39779 43.6328 4.94834V33.9482ZM39.3212 17.9907L19.8111 5.17517V20.574L39.3212 33.7256V17.9907Z" fill="white"/>
<path d="M127.808 2.47803V8.54768C128.66 8.01842 131.632 2.47803 132.005 2.47803H135.749V15.5162H131.666V9.22395L127.584 15.5162H123.501V2.81406C123.501 2.78886 123.819 2.47803 123.84 2.47803H127.808Z" fill="white"/>
<path d="M114.195 2.47803V7.19933H117.595V2.47803H121.907V15.5162H117.595V11.0217H114.195V15.5162H109.655V2.47803H114.195Z" fill="white"/>
<path d="M74.9416 2.47803V7.19933H78.346V2.81406C78.346 2.78886 78.6639 2.47803 78.6851 2.47803H82.8822V15.5162H78.346V11.0217H74.9416V15.5162H70.6301V2.47803H74.9416Z" fill="white"/>
<path d="M174.091 2.47803V15.5162H169.779V6.07361H167.511V11.131C167.511 11.2402 166.973 12.9665 166.875 13.1976C165.794 15.6296 163.259 15.6422 160.931 15.5162V12.1433C160.931 12.0425 162.356 12.0088 162.877 11.4838C163.068 11.2906 163.428 10.2069 163.428 10.0052V2.47803H174.091Z" fill="white"/>
<path d="M88.2749 2.31024C95.0877 1.34414 96.7284 4.54068 96.279 10.6901C95.9314 15.4661 92.6543 16.1213 88.4317 15.7475C84.1159 15.3652 83.7344 10.9506 84.0099 7.5272C84.2177 4.96493 85.5065 2.70509 88.2749 2.31024ZM88.8387 12.3115C89.7121 13.1096 91.6113 12.8576 91.9081 11.5344C92.0735 10.7867 92.0692 7.67002 91.942 6.87613C91.6241 4.88512 88.7921 4.84311 88.3724 6.68711C88.1646 7.60281 88.1731 11.7108 88.8345 12.3157" fill="white"/>
<path d="M141.875 2.47803V7.42196C142.142 7.38835 142.532 7.51017 142.744 7.38415C142.973 7.24974 144.626 3.1291 144.821 2.47803H149.586C149.425 3.81377 146.381 8.16124 146.462 9.07273C146.576 10.3917 149.57 13.8654 149.815 15.5162H144.826C144.457 14.6719 143.465 11.7358 142.901 11.2444C142.57 10.9545 142.278 11.0007 141.879 11.0217V15.5162H137.568V2.47803H141.879H141.875Z" fill="white"/>
<path d="M101.943 12.3701V15.5162H97.4067V2.81406C97.4067 2.78886 97.7247 2.47803 97.7459 2.47803H105.004C106.551 2.47803 108.565 4.41864 108.752 5.956C109.379 11.0679 106.857 12.7523 101.939 12.3659M101.714 9.21975C103.27 9.26595 104.622 9.45077 104.682 7.53537C104.762 4.91429 101.714 5.54856 101.714 5.9602V9.21975Z" fill="white"/>
<path d="M160.024 2.47803V6.07361H154.805V7.42196H159.57V10.5723H154.805V12.1433H160.478V15.5162H150.494V2.47803H160.024Z" fill="white"/>
<path d="M179.988 2.47803V6.30044H183.278C183.363 6.30044 184.664 6.8507 184.872 6.96831C187.704 8.55188 187.704 13.269 184.872 14.8526C184.664 14.9702 183.363 15.5204 183.278 15.5204H175.676V2.47803H179.988ZM180.132 9.48018C179.594 9.65659 179.636 11.8408 179.861 12.1601C180.213 12.6557 182.103 12.3827 182.502 11.824C183.6 10.2867 181.705 8.96352 180.136 9.48018" fill="white"/>
<path d="M96.1561 34.6244C97.6865 34.8722 98.6489 36.6574 97.7374 37.9889C97.4533 38.4048 97.0379 38.3712 96.9531 38.451C96.7708 38.619 97.5085 38.8206 97.7459 39.1231C98.3733 39.9254 98.4242 41.2611 97.7374 42.0382C97.6272 42.1642 96.6775 42.7186 96.6097 42.7186H92.1837V34.6244C93.4046 34.763 94.9902 34.4354 96.1518 34.6244M96.669 36.0273C96.1391 35.5023 94.0999 35.8509 93.3198 35.7459V38.22C94.3119 38.1864 96.7708 38.5686 96.9573 37.1951C96.9997 36.8884 96.8853 36.2374 96.669 36.0231M93.3198 41.8198C94.5281 41.7147 96.775 42.2986 97.0887 40.6982C97.4915 38.6358 94.5874 39.1567 93.3198 39.1189V41.8198Z" fill="white"/>
<path d="M100.807 34.6245V40.4673C102.1 39.6273 104.245 35.2546 105.352 34.7421C105.653 34.5993 105.932 34.5993 106.255 34.6245V42.7188H105.118V36.876L100.917 42.492L99.6749 42.7188V34.6245H100.811H100.807Z" fill="white"/>
<path d="M83.7895 34.6245V35.746H79.7068V37.9933H83.7895V39.119H79.7068V41.5931H83.7895V42.7146H78.5706V34.6245H83.7895Z" fill="white"/>
<path d="M86.5155 39.5684V42.7146H85.1546V34.9605C85.1546 34.9353 85.4726 34.6245 85.4937 34.6245H88.8981C89.9155 34.6245 90.9924 35.9855 91.0687 36.9894C91.2552 39.5516 88.4699 39.8163 86.5155 39.5726M86.2865 38.6695C87.4778 38.6107 89.6993 39.077 89.9113 37.4094C90.1911 35.2 87.7449 35.7964 86.2865 35.746V38.6695Z" fill="white"/>
<path d="M77.2098 36.6445C76.701 37.3376 75.7684 36.1447 75.2978 35.9557C71.054 34.2503 69.6338 42.3824 74.8314 41.8237C75.8447 41.7145 76.1202 40.908 76.807 40.9584C78.4647 41.076 76.2644 42.647 75.408 42.8444C68.8198 44.3734 68.5612 34.0697 74.7594 34.6703C75.4801 34.7417 77.7906 35.8465 77.2055 36.6445" fill="white"/>
<path d="M114.645 36.6445C114.136 37.3376 113.203 36.1447 112.733 35.9557C108.489 34.2503 107.069 42.3824 112.266 41.8237C113.279 41.7145 113.555 40.908 114.242 40.9584C115.899 41.076 113.699 42.647 112.843 42.8444C106.255 44.3734 105.996 34.0697 112.194 34.6703C112.915 34.7417 115.225 35.8465 114.64 36.6445" fill="white"/>
</g>
<defs>
<clipPath id="clip0_2001_295">
<rect width="187" height="43" fill="white"/>
</clipPath>
</defs>
</svg>
