<svg width="157" height="37" viewBox="0 0 157 37" fill="none" xmlns="http://www.w3.org/2000/svg">
<g clip-path="url(#clip0_2001_3)">
<path d="M155.956 21.6941H59.2601V22.2579H155.956V21.6941Z" fill="white"/>
<path d="M32.9891 10.942V0.00330121C40.277 -0.176425 47.131 5.02155 48.9628 11.9921C51.7051 22.4304 44.033 32.2308 33.2915 32.629C27.6183 29.2036 22.2227 25.2602 16.6171 21.6938V32.6325C3.85884 32.488 -4.2827 18.9838 2.37921 7.86899C5.24955 3.0798 10.8373 -0.134137 16.5175 0.0138734L32.9927 10.942H32.9891ZM13.0034 28.4812V3.96434C0.647039 7.60468 0.540334 24.9747 13.0034 28.4812ZM36.6064 28.4812C45.5376 25.9897 48.8988 15.1497 42.8842 8.02404C41.3868 6.25145 38.9255 4.52818 36.6064 4.15111V28.4812ZM32.9891 15.0933L16.6207 4.34141V17.2606L32.9891 28.2944V15.0933Z" fill="white"/>
<path d="M107.227 2.07919V7.17144C107.942 6.72741 110.436 2.07919 110.749 2.07919H113.889V13.0178H110.464V7.73882L107.039 13.0178H103.614V2.36111C103.614 2.33997 103.88 2.07919 103.898 2.07919H107.227Z" fill="white"/>
<path d="M95.8064 2.07919V6.04022H98.659V2.07919H102.276V13.0178H98.659V9.24711H95.8064V13.0178H91.9971V2.07919H95.8064Z" fill="white"/>
<path d="M62.8739 2.07919V6.04022H65.73V2.36111C65.73 2.33997 65.9967 2.07919 66.0145 2.07919H69.5358V13.0178H65.73V9.24711H62.8739V13.0178H59.2566V2.07919H62.8739Z" fill="white"/>
<path d="M146.057 2.07919V13.0178H142.44V5.09578H140.537V9.33874C140.537 9.43036 140.085 10.8787 140.003 11.0726C139.096 13.113 136.969 13.1236 135.017 13.0178V10.188C135.017 10.1035 136.212 10.0753 136.649 9.63476C136.809 9.47265 137.112 8.56345 137.112 8.39429V2.07919H146.057Z" fill="white"/>
<path d="M74.0601 1.93823C79.7759 1.1277 81.1523 3.8095 80.7753 8.96871C80.4837 12.9756 77.7342 13.5253 74.1917 13.2117C70.5708 12.891 70.2507 9.1872 70.4819 6.3151C70.6562 4.16543 71.7375 2.26949 74.0601 1.93823ZM74.5331 10.329C75.2658 10.9986 76.8593 10.7871 77.1082 9.67705C77.247 9.04977 77.2434 6.43492 77.1367 5.76887C76.8699 4.09847 74.494 4.06323 74.1419 5.61029C73.9676 6.37854 73.9747 9.82506 74.5296 10.3325" fill="white"/>
<path d="M119.029 2.07919V6.227C119.253 6.19881 119.58 6.301 119.758 6.19528C119.95 6.08251 121.337 2.62542 121.501 2.07919H125.499C125.363 3.19984 122.81 6.84723 122.877 7.61195C122.973 8.7185 125.484 11.6329 125.691 13.0178H121.504C121.195 12.3095 120.362 9.8462 119.889 9.43389C119.612 9.19073 119.367 9.22949 119.032 9.24711V13.0178H115.415V2.07919H119.032H119.029Z" fill="white"/>
<path d="M85.5272 10.3783V13.0178H81.7214V2.36111C81.7214 2.33997 81.9881 2.07919 82.0059 2.07919H88.0952C89.3934 2.07919 91.0829 3.7073 91.2394 4.9971C91.7658 9.28588 89.6495 10.699 85.5236 10.3748M85.3351 7.73529C86.6404 7.77406 87.7751 7.92912 87.8249 6.32215C87.8924 4.12314 85.3351 4.65527 85.3351 5.00063V7.73529Z" fill="white"/>
<path d="M134.255 2.07919V5.09578H129.877V6.227H133.875V8.87004H129.877V10.188H134.636V13.0178H126.26V2.07919H134.255Z" fill="white"/>
<path d="M151.004 2.07919V5.28608H153.765C153.836 5.28608 154.928 5.74773 155.102 5.8464C157.478 7.17497 157.478 11.1325 155.102 12.461C154.928 12.5597 153.836 13.0214 153.765 13.0214H147.387V2.07919H151.004ZM151.125 7.95378C150.674 8.10179 150.709 9.9343 150.898 10.2021C151.193 10.618 152.779 10.3889 153.114 9.92021C154.035 8.6304 152.445 7.52033 151.129 7.95378" fill="white"/>
<path d="M80.672 29.0488C81.956 29.2567 82.7634 30.7544 81.9987 31.8715C81.7604 32.2204 81.4119 32.1922 81.3407 32.2592C81.1878 32.4001 81.8067 32.5693 82.0058 32.823C82.5322 33.4961 82.5749 34.6168 81.9987 35.2687C81.9062 35.3744 81.1095 35.8396 81.0526 35.8396H77.3393V29.0488C78.3637 29.1651 79.6939 28.8902 80.6685 29.0488M81.1024 30.2258C80.6578 29.7853 78.947 30.0778 78.2925 29.9897V32.0654C79.1248 32.0372 81.1878 32.3579 81.3443 31.2055C81.3798 30.9482 81.2838 30.402 81.1024 30.2223M78.2925 35.0855C79.3062 34.9974 81.1913 35.4872 81.4545 34.1445C81.7924 32.4142 79.356 32.8512 78.2925 32.8195V35.0855Z" fill="white"/>
<path d="M84.5739 29.0488V33.9507C85.6587 33.2459 87.4585 29.5774 88.3868 29.1474C88.6393 29.0276 88.8741 29.0276 89.1444 29.0488V35.8396H88.1912V30.9377L84.6664 35.6493L83.6242 35.8396V29.0488H84.5774H84.5739Z" fill="white"/>
<path d="M70.2968 29.0488V29.9897H66.8716V31.875H70.2968V32.8195H66.8716V34.8952H70.2968V35.8361H65.9184V29.0488H70.2968Z" fill="white"/>
<path d="M72.5839 33.1966V35.8361H71.4421V29.3307C71.4421 29.3095 71.7089 29.0488 71.7267 29.0488H74.5828C75.4364 29.0488 76.3399 30.1905 76.4039 31.0328C76.5604 33.1825 74.2236 33.4045 72.5839 33.2001M72.3918 32.4424C73.3913 32.3931 75.255 32.7843 75.4329 31.3852C75.6676 29.5316 73.6153 30.032 72.3918 29.9897V32.4424Z" fill="white"/>
<path d="M64.7767 30.7438C64.3499 31.3253 63.5674 30.3245 63.1725 30.1659C59.6122 28.7351 58.4206 35.5577 62.7813 35.089C63.6314 34.9974 63.8626 34.3207 64.4388 34.363C65.8295 34.4617 63.9835 35.7797 63.265 35.9453C57.7377 37.2281 57.5208 28.5836 62.7208 29.0875C63.3255 29.1474 65.264 30.0743 64.7731 30.7438" fill="white"/>
<path d="M96.1834 30.7438C95.7566 31.3253 94.9741 30.3245 94.5792 30.1659C91.0189 28.7351 89.8273 35.5577 94.188 35.089C95.0381 34.9974 95.2693 34.3207 95.8455 34.363C97.2362 34.4617 95.3902 35.7797 94.6717 35.9453C89.1444 37.2281 88.9275 28.5836 94.1275 29.0875C94.7322 29.1474 96.6707 30.0743 96.1798 30.7438" fill="white"/>
</g>
<defs>
<clipPath id="clip0_2001_3">
<rect width="156.887" height="36.0757" fill="white"/>
</clipPath>
</defs>
</svg>
